<svg width="271" height="137" viewBox="0 0 271 137" fill="none" xmlns="http://www.w3.org/2000/svg">
<mask id="mask0_94_359" style="mask-type:luminance" maskUnits="userSpaceOnUse" x="0" y="0" width="271" height="91">
<path d="M270.667 0H0V90.6667H270.667V0Z" fill="white"/>
</mask>
<g mask="url(#mask0_94_359)">
<path d="M25.6247 36.4585C22.2081 36.698 19.406 37.8022 17.2289 39.771C15.0466 41.7449 13.9841 44.5574 14.0414 48.2085C14.0414 50.6824 14.7758 52.9689 16.2497 55.0626C17.7185 57.1616 20.4268 58.4741 24.3747 59.0001L24.7289 58.021C23.2549 57.2032 22.0049 56.0314 20.9789 54.5001C19.9476 52.9585 19.406 50.9793 19.3539 48.5626C19.281 46.0366 19.7758 43.9949 20.8331 42.4376C21.9008 40.8699 23.2758 39.6876 24.9581 38.896C26.6351 38.0939 28.3851 37.5418 30.2081 37.2501C32.0414 36.9585 33.7497 36.8022 35.3331 36.771C36.9268 36.7449 38.1351 36.7293 38.9581 36.7293V60.771H3.24973V3.31262H25.6247V36.4585Z" fill="#F5B7B1"/>
<path d="M71.5066 2.06262C75.6316 2.06262 79.4961 2.84908 83.1107 4.41679C86.7357 5.97408 89.9128 8.12512 92.6524 10.8751C95.4024 13.6147 97.5534 16.7918 99.1107 20.4168C100.678 24.0418 101.465 27.9168 101.465 32.0418C101.465 36.1668 100.678 40.0418 99.1107 43.6668C97.5534 47.2918 95.4024 50.4949 92.6524 53.271C89.9128 56.0366 86.7357 58.198 83.1107 59.7501C79.4961 61.3022 75.6316 62.0835 71.5066 62.0835C67.3816 62.0835 63.4857 61.3022 59.8191 59.7501C56.1628 58.198 52.9701 56.0366 50.2357 53.271C47.4961 50.4949 45.3451 47.2918 43.7774 43.6668C42.2201 40.0418 41.4441 36.1668 41.4441 32.0418C41.4441 27.9168 42.2201 24.0418 43.7774 20.4168C45.3451 16.7918 47.4961 13.6147 50.2357 10.8751C52.9701 8.12512 56.1628 5.97408 59.8191 4.41679C63.4857 2.84908 67.3816 2.06262 71.5066 2.06262ZM69.9857 27.1668C67.8034 27.1668 66.0951 28.0574 64.8607 29.8335V5.43762C62.0378 6.31262 59.7409 7.76054 57.9649 9.77096C56.1993 11.771 54.9336 14.0835 54.1732 16.7085C53.4076 19.323 53.1836 21.9897 53.5066 24.7085C53.8243 27.4168 54.6316 29.9376 55.9232 32.271C57.2253 34.5939 59.0586 36.4741 61.4232 37.9168C63.7826 39.3647 66.6368 40.0835 69.9857 40.0835C71.7618 40.0835 73.2826 39.4689 74.5482 38.2293C75.8086 36.9949 76.4441 35.4585 76.4441 33.6251C76.4441 31.8647 75.8086 30.3491 74.5482 29.0835C73.2826 27.8074 71.7618 27.1668 69.9857 27.1668Z" fill="#F5B7B1"/>
<path d="M131.702 35.5835V33.0002H155.389V60.771L140.098 61.3752C132.9 61.6772 126.546 60.9637 121.035 59.2293C115.535 57.4793 111.233 54.4741 108.139 50.2085C105.04 45.9325 103.462 40.1408 103.41 32.8335C103.41 26.4741 104.332 21.2918 106.181 17.2918C108.04 13.2814 110.619 10.1981 113.91 8.04182C117.212 5.89078 121.046 4.47411 125.41 3.79182C129.77 3.11474 134.457 2.95328 139.473 3.31266L139.389 4.45849C136.317 4.98974 133.764 6.55224 131.723 9.14599C129.692 11.7449 128.192 15.0522 127.223 19.0627C126.249 23.0627 125.827 27.4168 125.952 32.1252C126.004 34.1252 126.077 36.4116 126.16 38.9793C126.254 41.5366 126.567 44.0991 127.098 46.6668C127.624 49.2397 128.546 51.5366 129.869 53.5627C131.202 55.5939 133.103 57.1043 135.577 58.1043V37.3335L131.702 35.5835ZM154.494 3.31266C153.619 3.31266 152.369 3.32828 150.744 3.35432C149.119 3.38557 147.348 3.54182 145.431 3.83349C143.525 4.12516 141.702 4.70328 139.952 5.56266C138.212 6.42724 136.77 7.68245 135.619 9.33349C134.478 10.9741 133.91 13.146 133.91 15.8543C133.91 18.3439 134.41 20.3856 135.41 21.9793C136.41 23.5627 137.686 24.8022 139.244 25.6877C140.811 26.5627 142.478 27.1824 144.244 27.5418C146.004 27.8908 147.665 28.0939 149.223 28.146C150.79 28.2033 152.077 28.2033 153.077 28.146C154.087 28.0939 154.598 28.0627 154.598 28.0627L154.494 3.31266Z" fill="#F5B7B1"/>
<path d="M184.373 3.31262H207.457V60.771H184.373V3.31262Z" fill="#F5B7B1"/>
<path d="M234.597 60.8543H212.576V3.39593H234.597V23.5418H235.743C235.795 21.0157 236.076 18.5314 236.576 16.0834C237.076 13.6407 237.899 11.4324 239.055 9.45843C240.206 7.48968 241.753 5.92718 243.701 4.77093C245.644 3.61989 248.024 3.07302 250.847 3.1251C254.097 3.19802 256.732 3.82302 258.764 5.0001C260.79 6.16677 262.331 7.76052 263.389 9.77093C264.456 11.7709 265.201 14.0418 265.618 16.5834C266.035 19.1147 266.243 21.7866 266.243 24.6043V60.8543H244.66V32.6459C244.66 30.5939 244.16 29.0522 243.16 28.0209C242.16 26.9793 240.977 26.448 239.618 26.4168C238.269 26.3907 237.097 26.8751 236.097 27.8751C235.097 28.8751 234.597 30.4116 234.597 32.4793V60.8543Z" fill="#F5B7B1"/>
</g>
<mask id="mask1_94_359" style="mask-type:luminance" maskUnits="userSpaceOnUse" x="0" y="38" width="271" height="92">
<path d="M270.667 38.6666H0V129.333H270.667V38.6666Z" fill="white"/>
</mask>
<g mask="url(#mask1_94_359)">
<path d="M25.6247 75.1953C22.2081 75.4349 19.406 76.539 17.2289 78.5078C15.0466 80.4817 13.9841 83.2942 14.0414 86.9453C14.0414 89.4192 14.7758 91.7057 16.2497 93.7994C17.7185 95.8984 20.4268 97.2109 24.3747 97.7369L24.7289 96.7578C23.2549 95.9401 22.0049 94.7682 20.9789 93.2369C19.9476 91.6953 19.406 89.7161 19.3539 87.2994C19.281 84.7734 19.7758 82.7317 20.8331 81.1744C21.9008 79.6067 23.2758 78.4244 24.9581 77.6328C26.6351 76.8307 28.3851 76.2786 30.2081 75.9869C32.0414 75.6953 33.7497 75.539 35.3331 75.5078C36.9268 75.4817 38.1351 75.4661 38.9581 75.4661V99.5078H3.24973V42.0494H25.6247V75.1953Z" fill="#FAD7A0"/>
<path d="M71.5066 40.7994C75.6316 40.7994 79.4961 41.5859 83.1107 43.1536C86.7357 44.7109 89.9128 46.8619 92.6524 49.6119C95.4024 52.3515 97.5534 55.5286 99.1107 59.1536C100.678 62.7786 101.465 66.6536 101.465 70.7786C101.465 74.9036 100.678 78.7786 99.1107 82.4036C97.5534 86.0286 95.4024 89.2317 92.6524 92.0078C89.9128 94.7734 86.7357 96.9349 83.1107 98.4869C79.4961 100.039 75.6316 100.82 71.5066 100.82C67.3816 100.82 63.4857 100.039 59.8191 98.4869C56.1628 96.9349 52.9701 94.7734 50.2357 92.0078C47.4961 89.2317 45.3451 86.0286 43.7774 82.4036C42.2201 78.7786 41.4441 74.9036 41.4441 70.7786C41.4441 66.6536 42.2201 62.7786 43.7774 59.1536C45.3451 55.5286 47.4961 52.3515 50.2357 49.6119C52.9701 46.8619 56.1628 44.7109 59.8191 43.1536C63.4857 41.5859 67.3816 40.7994 71.5066 40.7994ZM69.9857 65.9036C67.8034 65.9036 66.0951 66.7942 64.8607 68.5703V44.1744C62.0378 45.0494 59.7409 46.4974 57.9649 48.5078C56.1993 50.5078 54.9336 52.8203 54.1732 55.4453C53.4076 58.0599 53.1836 60.7265 53.5066 63.4453C53.8243 66.1536 54.6316 68.6744 55.9232 71.0078C57.2253 73.3307 59.0586 75.2109 61.4232 76.6536C63.7826 78.1015 66.6368 78.8203 69.9857 78.8203C71.7618 78.8203 73.2826 78.2057 74.5482 76.9661C75.8086 75.7317 76.4441 74.1953 76.4441 72.3619C76.4441 70.6015 75.8086 69.0859 74.5482 67.8203C73.2826 66.5442 71.7618 65.9036 69.9857 65.9036Z" fill="#FAD7A0"/>
<path d="M131.702 74.3202V71.7369H155.389V99.5077L140.098 100.112C132.9 100.414 126.546 99.7004 121.035 97.966C115.535 96.216 111.233 93.2108 108.139 88.9452C105.04 84.6691 103.462 78.8775 103.41 71.5702C103.41 65.2108 104.332 60.0285 106.181 56.0285C108.04 52.0181 110.619 48.9348 113.91 46.7785C117.212 44.6275 121.046 43.2108 125.41 42.5285C129.77 41.8514 134.457 41.69 139.473 42.0494L139.389 43.1952C136.317 43.7264 133.764 45.2889 131.723 47.8827C129.692 50.4816 128.192 53.7889 127.223 57.7994C126.249 61.7994 125.827 66.1535 125.952 70.8619C126.004 72.8619 126.077 75.1483 126.16 77.716C126.254 80.2733 126.567 82.8358 127.098 85.4035C127.624 87.9764 128.546 90.2733 129.869 92.2994C131.202 94.3306 133.103 95.841 135.577 96.841V76.0702L131.702 74.3202ZM154.494 42.0494C153.619 42.0494 152.369 42.065 150.744 42.091C149.119 42.1223 147.348 42.2785 145.431 42.5702C143.525 42.8619 141.702 43.44 139.952 44.2994C138.212 45.1639 136.77 46.4191 135.619 48.0702C134.478 49.7108 133.91 51.8827 133.91 54.591C133.91 57.0806 134.41 59.1223 135.41 60.716C136.41 62.2994 137.686 63.5389 139.244 64.4244C140.811 65.2994 142.478 65.9191 144.244 66.2785C146.004 66.6275 147.665 66.8306 149.223 66.8827C150.79 66.94 152.077 66.94 153.077 66.8827C154.087 66.8306 154.598 66.7994 154.598 66.7994L154.494 42.0494Z" fill="#FAD7A0"/>
<path d="M184.373 42.0494H207.457V99.5078H184.373V42.0494Z" fill="#FAD7A0"/>
<path d="M234.597 99.5911H212.576V42.1328H234.597V62.2786H235.743C235.795 59.7525 236.076 57.2682 236.576 54.8203C237.076 52.3775 237.899 50.1692 239.055 48.1953C240.206 46.2265 241.753 44.664 243.701 43.5078C245.644 42.3567 248.024 41.8098 250.847 41.8619C254.097 41.9348 256.732 42.5598 258.764 43.7369C260.79 44.9036 262.331 46.4973 263.389 48.5078C264.456 50.5078 265.201 52.7786 265.618 55.3203C266.035 57.8515 266.243 60.5234 266.243 63.3411V99.5911H244.66V71.3828C244.66 69.3307 244.16 67.789 243.16 66.7578C242.16 65.7161 240.977 65.1848 239.618 65.1536C238.269 65.1275 237.097 65.6119 236.097 66.6119C235.097 67.6119 234.597 69.1484 234.597 71.2161V99.5911Z" fill="#FAD7A0"/>
</g>
<path d="M25.6406 110.665C22.224 110.905 19.4219 112.009 17.2448 113.978C15.0625 115.952 14 118.764 14.0573 122.415C14.0573 124.889 14.7917 127.176 16.2656 129.27C17.7344 131.369 20.4427 132.681 24.3906 133.207L24.7448 132.228C23.2708 131.41 22.0208 130.238 20.9948 128.707C19.9635 127.165 19.4219 125.186 19.3698 122.77C19.2969 120.244 19.7917 118.202 20.849 116.645C21.9167 115.077 23.2917 113.895 24.974 113.103C26.651 112.301 28.401 111.749 30.224 111.457C32.0573 111.165 33.7656 111.009 35.349 110.978C36.9427 110.952 38.151 110.936 38.974 110.936V134.978H3.26562V77.5197H25.6406V110.665Z" fill="#C39BD3"/>
<path d="M71.52 76.2697C75.645 76.2697 79.5095 77.0561 83.1241 78.6238C86.7491 80.1811 89.9262 82.3322 92.6658 85.0822C95.4158 87.8217 97.5668 90.9988 99.1241 94.6238C100.692 98.2488 101.478 102.124 101.478 106.249C101.478 110.374 100.692 114.249 99.1241 117.874C97.5668 121.499 95.4158 124.702 92.6658 127.478C89.9262 130.244 86.7491 132.405 83.1241 133.957C79.5095 135.509 75.645 136.29 71.52 136.29C67.395 136.29 63.4991 135.509 59.8325 133.957C56.1762 132.405 52.9835 130.244 50.2491 127.478C47.5095 124.702 45.3585 121.499 43.7908 117.874C42.2335 114.249 41.4575 110.374 41.4575 106.249C41.4575 102.124 42.2335 98.2488 43.7908 94.6238C45.3585 90.9988 47.5095 87.8217 50.2491 85.0822C52.9835 82.3322 56.1762 80.1811 59.8325 78.6238C63.4991 77.0561 67.395 76.2697 71.52 76.2697ZM69.9991 101.374C67.8168 101.374 66.1085 102.264 64.8741 104.04V79.6447C62.0512 80.5197 59.7543 81.9676 57.9783 83.978C56.2127 85.978 54.947 88.2905 54.1866 90.9155C53.421 93.5301 53.197 96.1967 53.52 98.9155C53.8377 101.624 54.645 104.145 55.9366 106.478C57.2387 108.801 59.072 110.681 61.4366 112.124C63.796 113.572 66.6502 114.29 69.9991 114.29C71.7752 114.29 73.296 113.676 74.5616 112.436C75.822 111.202 76.4575 109.665 76.4575 107.832C76.4575 106.072 75.822 104.556 74.5616 103.29C73.296 102.014 71.7752 101.374 69.9991 101.374Z" fill="#C39BD3"/>
<path d="M131.712 109.79V107.207H155.399V134.978L140.107 135.582C132.909 135.884 126.555 135.171 121.045 133.436C115.545 131.686 111.243 128.681 108.149 124.415C105.05 120.139 103.472 114.348 103.42 107.04C103.42 100.681 104.342 95.4987 106.191 91.4987C108.05 87.4883 110.628 84.405 113.92 82.2487C117.222 80.0977 121.055 78.681 125.42 77.9987C129.779 77.3216 134.467 77.1602 139.482 77.5196L139.399 78.6654C136.326 79.1966 133.774 80.7591 131.732 83.3529C129.701 85.9519 128.201 89.2591 127.232 93.2696C126.258 97.2696 125.837 101.624 125.962 106.332C126.014 108.332 126.087 110.619 126.17 113.186C126.264 115.744 126.576 118.306 127.107 120.874C127.633 123.447 128.555 125.744 129.878 127.77C131.212 129.801 133.113 131.311 135.587 132.311V111.54L131.712 109.79ZM154.503 77.5196C153.628 77.5196 152.378 77.5352 150.753 77.5612C149.128 77.5925 147.357 77.7487 145.441 78.0404C143.534 78.3321 141.712 78.9102 139.962 79.7696C138.222 80.6341 136.779 81.8894 135.628 83.5404C134.488 85.181 133.92 87.3529 133.92 90.0612C133.92 92.5508 134.42 94.5925 135.42 96.1862C136.42 97.7696 137.696 99.0091 139.253 99.8946C140.821 100.77 142.488 101.389 144.253 101.749C146.014 102.098 147.675 102.301 149.232 102.353C150.8 102.41 152.087 102.41 153.087 102.353C154.097 102.301 154.607 102.27 154.607 102.27L154.503 77.5196Z" fill="#C39BD3"/>
<path d="M184.378 77.5197H207.461V134.978H184.378V77.5197Z" fill="#C39BD3"/>
<path d="M234.6 135.061H212.579V77.603H234.6V97.7488H235.746C235.798 95.2228 236.079 92.7384 236.579 90.2905C237.079 87.8478 237.902 85.6394 239.058 83.6655C240.209 81.6967 241.756 80.1342 243.704 78.978C245.647 77.8269 248.027 77.28 250.85 77.3321C254.1 77.405 256.735 78.03 258.767 79.2071C260.793 80.3738 262.334 81.9675 263.392 83.978C264.459 85.978 265.204 88.2488 265.621 90.7905C266.037 93.3217 266.246 95.9936 266.246 98.8113V135.061H244.662V106.853C244.662 104.801 244.162 103.259 243.162 102.228C242.162 101.186 240.98 100.655 239.621 100.624C238.272 100.598 237.1 101.082 236.1 102.082C235.1 103.082 234.6 104.619 234.6 106.686V135.061Z" fill="#C39BD3"/>
</svg>
