<svg width="361" height="86" viewBox="0 0 361 86" fill="none" xmlns="http://www.w3.org/2000/svg">
<mask id="mask0_94_507" style="mask-type:luminance" maskUnits="userSpaceOnUse" x="0" y="0" width="361" height="86">
<path d="M360.906 0H0V85.364H360.906V0Z" fill="white"/>
</mask>
<g mask="url(#mask0_94_507)">
<path d="M21.0451 61.4648H3.21591V14.8998H21.0451V31.1588H21.9737C22.0285 29.1118 22.2607 27.0988 22.6659 25.1148C23.0711 23.1228 23.7338 21.3288 24.6582 19.7288C25.591 18.1328 26.8446 16.8708 28.4232 15.9468C29.9976 15.0138 31.935 14.5708 34.2312 14.6128C36.8524 14.6598 38.9629 15.1828 40.5626 16.1828C42.1708 17.1878 43.4033 18.4918 44.2601 20.0998C45.1128 21.6998 45.7206 23.4558 46.0836 25.3678C46.4423 27.2718 46.645 29.2008 46.6914 31.1588H47.4174C47.4596 29.1118 47.696 27.0988 48.1265 25.1148C48.5528 23.1228 49.2324 21.3288 50.1694 19.7288C51.1022 18.1328 52.3474 16.8708 53.9007 15.9468C55.454 15.0138 57.3999 14.5708 59.7425 14.6128C62.7478 14.6598 65.0819 15.3308 66.7492 16.6218C68.4249 17.9048 69.6447 19.5388 70.413 21.5188C71.1769 23.5018 71.6539 25.6378 71.8481 27.9338C72.038 30.2308 72.1351 32.4248 72.1351 34.5188V61.4648H54.6436V37.8958C54.6436 36.3678 54.2384 35.2448 53.428 34.5358C52.6176 33.8178 51.6974 33.4678 50.6759 33.4888C49.6502 33.5138 48.7259 33.8938 47.907 34.6368C47.0966 35.3798 46.6914 36.4688 46.6914 37.8958V61.4648H29.2168V38.5368C29.2168 36.8618 28.8116 35.6078 28.0011 34.7718C27.1907 33.9408 26.2326 33.5228 25.1309 33.5228C24.0377 33.5228 23.0796 33.9278 22.2607 34.7388C21.4503 35.5488 21.0451 36.7938 21.0451 38.4698V61.4648Z" fill="#3F1D38"/>
<path d="M114.752 35.0929C114.752 35.0929 114.211 35.1349 113.131 35.2109C112.059 35.2789 110.738 35.2279 109.163 35.0589C107.585 34.8899 106.01 34.4849 104.436 33.8439C102.857 33.2019 101.532 32.1889 100.451 30.8049C99.3788 29.4199 98.8218 27.5079 98.7798 25.0639C98.7328 23.2529 99.0538 21.7379 99.7418 20.5219C100.438 19.3069 101.312 18.3189 102.359 17.5509L102.004 16.7569C99.6618 17.1409 97.7708 18.1709 96.3318 19.8469C94.9008 21.5139 94.1408 23.4009 94.0518 25.5029C93.9508 27.3179 94.3138 29.1159 95.1498 30.9059C95.9938 32.6959 97.2688 34.1769 98.9818 35.3459C100.704 36.5199 102.785 37.1529 105.229 37.2539V38.6719C103.271 38.7309 101.43 39.1279 99.7078 39.8709C97.9858 40.6059 96.5848 41.6519 95.5038 43.0119C94.4318 44.3749 93.8748 46.0589 93.8328 48.0599C93.8328 49.7399 94.1618 51.3859 94.8288 53.0069C95.5038 54.6269 96.4578 56.0369 97.6988 57.2279C98.9488 58.4219 100.405 59.2109 102.072 59.5909L102.427 58.8149C101.38 58.0509 100.506 57.0589 99.8098 55.8429C99.1218 54.6189 98.7798 53.0999 98.7798 51.2849C98.7328 49.0899 99.1378 47.3419 99.9948 46.0339C100.848 44.7169 101.958 43.7159 103.321 43.0279C104.681 42.3319 106.116 41.8549 107.627 41.5929C109.134 41.3229 110.531 41.1799 111.814 41.1539C113.105 41.1329 114.11 41.1209 114.819 41.1209L114.752 61.4649H88.6828C85.4287 61.4649 82.7991 60.7979 80.7984 59.4559C78.7934 58.1179 77.3794 56.4259 76.5606 54.3739C75.7501 52.3139 75.5349 50.1789 75.919 47.9579C76.2989 45.7419 77.2697 43.7289 78.823 41.9139C80.3763 40.0909 82.4909 38.7739 85.1712 37.9629C82.5374 37.1529 80.5156 35.8529 79.11 34.0629C77.7002 32.2729 76.8813 30.2939 76.645 28.1199C76.4086 25.9509 76.6956 23.8609 77.506 21.8559C78.3165 19.8429 79.6587 18.1839 81.5412 16.8759C83.4322 15.5589 85.8128 14.8999 88.6828 14.8999H114.819L114.752 35.0929Z" fill="#3F1D38"/>
<path d="M136.095 61.4648H118.266V14.8998H136.095V31.1588H137.024C137.079 29.1118 137.311 27.0988 137.716 25.1148C138.121 23.1228 138.784 21.3288 139.708 19.7288C140.641 18.1328 141.895 16.8708 143.474 15.9468C145.048 15.0138 146.985 14.5708 149.281 14.6128C151.903 14.6598 154.013 15.1828 155.613 16.1828C157.221 17.1878 158.454 18.4918 159.31 20.0998C160.163 21.6998 160.771 23.4558 161.134 25.3678C161.493 27.2718 161.695 29.2008 161.742 31.1588H162.468C162.51 29.1118 162.746 27.0988 163.177 25.1148C163.603 23.1228 164.283 21.3288 165.22 19.7288C166.153 18.1328 167.398 16.8708 168.951 15.9468C170.504 15.0138 172.45 14.5708 174.793 14.6128C177.798 14.6598 180.132 15.3308 181.799 16.6218C183.475 17.9048 184.695 19.5388 185.463 21.5188C186.227 23.5018 186.704 25.6378 186.898 27.9338C187.088 30.2308 187.185 32.4248 187.185 34.5188V61.4648H169.694V37.8958C169.694 36.3678 169.289 35.2448 168.478 34.5358C167.668 33.8178 166.748 33.4678 165.726 33.4888C164.701 33.5138 163.776 33.8938 162.957 34.6368C162.147 35.3798 161.742 36.4688 161.742 37.8958V61.4648H144.267V38.5368C144.267 36.8618 143.862 35.6078 143.051 34.7718C142.241 33.9408 141.283 33.5228 140.181 33.5228C139.088 33.5228 138.13 33.9278 137.311 34.7388C136.501 35.5488 136.095 36.7938 136.095 38.4698V61.4648Z" fill="#3F1D38"/>
<path d="M249.571 14.8999H268.278V61.4649H249.571V14.8999Z" fill="#3F1D38"/>
<path d="M272.571 14.8999H304.734C307.41 14.8999 309.656 15.4529 311.471 16.5549C313.282 17.6479 314.666 19.0449 315.624 20.7419C316.578 22.4299 317.102 24.2329 317.194 26.1449C317.296 29.0149 316.76 31.4289 315.59 33.3879C314.417 35.3379 312.855 36.8409 310.897 37.8959C308.938 38.9429 306.777 39.5759 304.413 39.7869C302.05 40.0019 299.745 39.8499 297.508 39.3309L297.137 40.0399C298.859 41.4239 300.851 42.2859 303.113 42.6229C305.384 42.9609 307.68 42.9059 310.002 42.4539C312.319 41.9939 314.341 41.3359 316.063 40.4789V60.5369C313.957 61.3939 311.779 61.8749 309.529 61.9889C307.288 62.1109 305.211 61.7779 303.299 60.9929C301.395 60.2079 299.88 58.9159 298.757 57.1259C297.63 55.3369 297.12 52.9639 297.221 50.0009C297.263 48.4729 297.094 46.8739 296.714 45.2059C296.33 43.5309 295.625 42.0959 294.604 40.9009C293.578 39.7109 292.109 39.1109 290.197 39.1109V61.4649H272.571V14.8999ZM285.892 20.8429C285.892 22.0379 286.306 23.0549 287.141 23.8989C287.986 24.7349 289.003 25.1489 290.197 25.1489V37.1699C292.299 37.0349 293.996 36.3089 295.279 34.9919C296.571 33.6749 297.466 32.0669 297.964 30.1629C298.47 28.2509 298.563 26.3259 298.251 24.3889C297.947 22.4559 297.208 20.7709 296.039 19.3409C294.866 17.9139 293.253 17.0279 291.194 16.6899C289.91 16.4529 288.703 16.7319 287.58 17.5169C286.453 18.3059 285.892 19.4169 285.892 20.8429Z" fill="#3F1D38"/>
<mask id="mask1_94_507" style="mask-type:luminance" maskUnits="userSpaceOnUse" x="318" y="0" width="41" height="62">
<path d="M318.764 0.649902H358.745V61.5919H318.764V0.649902Z" fill="white"/>
</mask>
<g mask="url(#mask1_94_507)">
<path d="M342.206 0.853027L355.594 5.29303L346.579 13.82H335.824L342.206 0.853027ZM358.245 14.9H332.109C329.239 14.9 326.858 15.559 324.967 16.876C323.085 18.184 321.743 19.843 320.932 21.856C320.122 23.861 319.835 25.951 320.071 28.12C320.308 30.294 321.126 32.273 322.536 34.063C323.942 35.853 325.964 37.153 328.597 37.963C325.917 38.774 323.803 40.091 322.249 41.914C320.696 43.729 319.725 45.742 319.345 47.958C318.961 50.179 319.176 52.314 319.987 54.374C320.806 56.426 322.22 58.118 324.225 59.456C326.225 60.798 328.855 61.465 332.109 61.465H358.178L358.245 41.121C357.536 41.121 356.532 41.133 355.24 41.154C353.957 41.18 352.56 41.323 351.053 41.593C349.542 41.855 348.107 42.332 346.747 43.028C345.384 43.716 344.274 44.717 343.421 46.034C342.564 47.342 342.159 49.09 342.206 51.285C342.206 53.1 342.548 54.619 343.236 55.843C343.932 57.059 344.806 58.051 345.853 58.815L345.498 59.591C343.831 59.211 342.375 58.422 341.125 57.228C339.884 56.037 338.93 54.627 338.255 53.007C337.588 51.386 337.259 49.74 337.259 48.06C337.301 46.059 337.858 44.375 338.93 43.012C340.011 41.652 341.412 40.606 343.134 39.871C344.856 39.128 346.697 38.732 348.655 38.672V37.254C346.211 37.153 344.13 36.52 342.408 35.346C340.695 34.177 339.42 32.696 338.576 30.906C337.74 29.116 337.377 27.318 337.478 25.503C337.567 23.401 338.327 21.514 339.758 19.847C341.197 18.171 343.088 17.141 345.43 16.757L345.785 17.551C344.738 18.319 343.865 19.307 343.168 20.522C342.48 21.738 342.159 23.253 342.206 25.064C342.248 27.508 342.805 29.42 343.877 30.805C344.958 32.189 346.283 33.202 347.862 33.844C349.436 34.485 351.011 34.89 352.589 35.059C354.164 35.228 355.485 35.279 356.557 35.211C357.637 35.135 358.178 35.093 358.178 35.093L358.245 14.9Z" fill="#3F1D38"/>
</g>
</g>
<mask id="mask2_94_507" style="mask-type:luminance" maskUnits="userSpaceOnUse" x="194" y="14" width="48" height="48">
<path d="M194.956 14.3259H241.669V61.0389H194.956V14.3259Z" fill="white"/>
</mask>
<g mask="url(#mask2_94_507)">
<mask id="mask3_94_507" style="mask-type:luminance" maskUnits="userSpaceOnUse" x="194" y="14" width="48" height="48">
<path d="M218.315 14.3259C205.416 14.3259 194.956 24.7849 194.956 37.6839C194.956 50.5839 205.416 61.0389 218.315 61.0389C231.214 61.0389 241.669 50.5839 241.669 37.6839C241.669 24.7849 231.214 14.3259 218.315 14.3259Z" fill="white"/>
</mask>
<g mask="url(#mask3_94_507)">
<path d="M218.315 14.3259C205.416 14.3259 194.956 24.7849 194.956 37.6839C194.956 50.5839 205.416 61.0389 218.315 61.0389C231.214 61.0389 241.669 50.5839 241.669 37.6839C241.669 24.7849 231.214 14.3259 218.315 14.3259Z" stroke="#C39BD3" stroke-width="18"/>
</g>
</g>
<mask id="mask4_94_507" style="mask-type:luminance" maskUnits="userSpaceOnUse" x="207" y="27" width="22" height="22">
<path d="M207.957 27.322H228.677V48.047H207.957V27.322Z" fill="white"/>
</mask>
<g mask="url(#mask4_94_507)">
<mask id="mask5_94_507" style="mask-type:luminance" maskUnits="userSpaceOnUse" x="207" y="27" width="22" height="22">
<path d="M218.315 27.322C212.595 27.322 207.957 31.965 207.957 37.684C207.957 43.408 212.595 48.047 218.315 48.047C224.038 48.047 228.677 43.408 228.677 37.684C228.677 31.965 224.038 27.322 218.315 27.322Z" fill="white"/>
</mask>
<g mask="url(#mask5_94_507)">
<mask id="mask6_94_507" style="mask-type:luminance" maskUnits="userSpaceOnUse" x="207" y="26" width="23" height="23">
<path d="M229.078 26.959H207.467V48.57H229.078V26.959Z" fill="white"/>
</mask>
<g mask="url(#mask6_94_507)">
<mask id="mask7_94_507" style="mask-type:luminance" maskUnits="userSpaceOnUse" x="207" y="27" width="22" height="22">
<path d="M207.957 27.322H228.677V48.047H207.957V27.322Z" fill="white"/>
</mask>
<g mask="url(#mask7_94_507)">
<mask id="mask8_94_507" style="mask-type:luminance" maskUnits="userSpaceOnUse" x="207" y="27" width="22" height="22">
<path d="M218.315 27.322C212.595 27.322 207.957 31.965 207.957 37.684C207.957 43.408 212.595 48.047 218.315 48.047C224.038 48.047 228.677 43.408 228.677 37.684C228.677 31.965 224.038 27.322 218.315 27.322Z" fill="white"/>
</mask>
<g mask="url(#mask8_94_507)">
<path d="M207.957 27.322H228.677V48.047H207.957V27.322Z" fill="#3F1D38"/>
</g>
</g>
</g>
</g>
</g>
<mask id="mask9_94_507" style="mask-type:luminance" maskUnits="userSpaceOnUse" x="188" y="7" width="14" height="13">
<path d="M188.637 7.125H201.262V19.75H188.637V7.125Z" fill="white"/>
</mask>
<g mask="url(#mask9_94_507)">
<mask id="mask10_94_507" style="mask-type:luminance" maskUnits="userSpaceOnUse" x="188" y="7" width="14" height="13">
<path d="M194.952 7.125C191.465 7.125 188.637 9.949 188.637 13.435C188.637 16.922 191.465 19.75 194.952 19.75C198.438 19.75 201.262 16.922 201.262 13.435C201.262 9.949 198.438 7.125 194.952 7.125Z" fill="white"/>
</mask>
<g mask="url(#mask10_94_507)">
<path d="M194.952 7.125C191.465 7.125 188.637 9.949 188.637 13.435C188.637 16.922 191.465 19.75 194.952 19.75C198.438 19.75 201.262 16.922 201.262 13.435C201.262 9.949 198.438 7.125 194.952 7.125Z" stroke="#C39BD3" stroke-width="8"/>
</g>
</g>
</svg>
