<svg width="336" height="136" viewBox="0 0 336 136" fill="none" xmlns="http://www.w3.org/2000/svg">
<mask id="mask0_94_452" style="mask-type:luminance" maskUnits="userSpaceOnUse" x="0" y="0" width="336" height="91">
<path d="M336 0H0V90.6667H336V0Z" fill="white"/>
</mask>
<g mask="url(#mask0_94_452)">
<path d="M22.5869 3.31262H52.5453L52.6286 26.8126C52.6286 26.8126 51.9932 26.8647 50.7328 26.9585C49.4671 27.0418 47.889 27.0001 46.0036 26.8335C44.113 26.6564 42.2223 26.1824 40.3369 25.4168C38.4619 24.6407 36.8682 23.448 35.5661 21.8335C34.2744 20.2085 33.5973 17.9793 33.5453 15.146C33.488 12.6199 33.988 10.7085 35.0453 9.41679C36.0973 8.1147 37.3994 7.05221 38.9411 6.22929L38.7536 5.25012C36.639 5.14075 34.5505 5.34908 32.4828 5.87512C30.4255 6.40637 28.7015 7.3647 27.3161 8.75012C25.9255 10.1251 25.2015 12.0574 25.1494 14.5418C25.0921 16.6564 25.6338 18.521 26.7744 20.146C27.9255 21.771 29.4098 23.2032 31.2328 24.4376C33.0661 25.6772 34.9515 26.7918 36.8994 27.7918C38.8421 28.7918 40.5505 29.7085 42.0244 30.5418C46.0921 32.7814 49.0505 35.3126 50.8994 38.146C52.7588 40.9689 53.3682 44.2397 52.7328 47.9585C52.3682 50.073 51.613 52.0991 50.4619 54.0418C49.3213 55.9897 47.6494 57.5991 45.4411 58.8751C43.2328 60.1407 40.3838 60.771 36.8994 60.771H3.7536L3.67026 35.8335C3.67026 35.8335 4.15464 35.8074 5.1286 35.7501C6.09735 35.698 7.33693 35.698 8.83693 35.7501C10.3369 35.8074 11.9411 36.0314 13.6494 36.4168C15.3578 36.7918 16.9723 37.4272 18.5036 38.3126C20.0453 39.2032 21.3161 40.448 22.3161 42.0418C23.3161 43.6251 23.8161 45.6824 23.8161 48.2085C23.8682 50.7501 23.4098 52.7293 22.4411 54.146C21.4671 55.5522 20.1911 56.698 18.6078 57.5835L18.8786 58.5626C21.1703 58.4949 23.2223 58.2085 25.0453 57.7085C26.8786 57.2085 28.3682 56.2866 29.5244 54.9376C30.6755 53.5782 31.2796 51.5991 31.3369 49.0001C31.1546 46.0574 30.3161 43.6147 28.8161 41.6668C27.3161 39.7241 25.4411 38.0939 23.1911 36.771C20.9515 35.4376 18.5973 34.1876 16.1286 33.021C13.6546 31.8439 11.3421 30.573 9.1911 29.2085C7.03485 27.8491 5.32651 26.1668 4.0661 24.1668C2.80047 22.1668 2.22235 19.6355 2.33693 16.5626C2.46193 13.5626 3.13901 11.1824 4.3786 9.41679C5.61297 7.64075 7.20151 6.31262 9.14943 5.43762C11.0921 4.55221 13.2223 3.97408 15.5453 3.70846C17.8786 3.44804 20.2223 3.31262 22.5869 3.31262Z" fill="#F5B7B1"/>
<path d="M56.963 3.31262H80.0463V60.771H56.963V3.31262Z" fill="#F5B7B1"/>
<path d="M112.312 35.5834V33H135.999V60.7709L120.707 61.375C113.51 61.6771 107.155 60.9636 101.645 59.2292C96.145 57.4792 91.8429 54.474 88.7491 50.2084C85.6502 45.9323 84.0721 40.1407 84.02 32.8334C84.02 26.474 84.9419 21.2917 86.7908 17.2917C88.6502 13.2813 91.2283 10.1979 94.52 8.0417C97.8221 5.89066 101.655 4.47399 106.02 3.7917C110.379 3.11462 115.067 2.95316 120.082 3.31253L119.999 4.45837C116.926 4.98962 114.374 6.55212 112.332 9.14587C110.301 11.7448 108.801 15.0521 107.832 19.0625C106.859 23.0625 106.437 27.4167 106.562 32.125C106.614 34.125 106.687 36.4115 106.77 38.9792C106.864 41.5365 107.176 44.099 107.707 46.6667C108.234 49.2396 109.155 51.5365 110.478 53.5625C111.812 55.5938 113.713 57.1042 116.187 58.1042V37.3334L112.312 35.5834ZM135.103 3.31253C134.228 3.31253 132.978 3.32816 131.353 3.3542C129.728 3.38545 127.957 3.5417 126.041 3.83337C124.135 4.12503 122.312 4.70316 120.562 5.56253C118.822 6.42712 117.379 7.68233 116.228 9.33337C115.088 10.974 114.52 13.1459 114.52 15.8542C114.52 18.3438 115.02 20.3855 116.02 21.9792C117.02 23.5625 118.296 24.8021 119.853 25.6875C121.421 26.5625 123.088 27.1823 124.853 27.5417C126.614 27.8907 128.275 28.0938 129.832 28.1459C131.4 28.2032 132.687 28.2032 133.687 28.1459C134.697 28.0938 135.207 28.0625 135.207 28.0625L135.103 3.31253Z" fill="#F5B7B1"/>
<path d="M162.699 60.8543H140.679V3.39593H162.699V23.5418H163.845C163.897 21.0157 164.179 18.5314 164.679 16.0834C165.179 13.6407 166.001 11.4324 167.158 9.45843C168.309 7.48968 169.856 5.92718 171.804 4.77093C173.746 3.61989 176.126 3.07302 178.949 3.1251C182.199 3.19802 184.835 3.82302 186.866 5.0001C188.892 6.16677 190.434 7.76052 191.491 9.77093C192.559 11.7709 193.304 14.0418 193.72 16.5834C194.137 19.1147 194.345 21.7866 194.345 24.6043V60.8543H172.762V32.6459C172.762 30.5939 172.262 29.0522 171.262 28.0209C170.262 26.9793 169.08 26.448 167.72 26.4168C166.371 26.3907 165.199 26.8751 164.199 27.8751C163.199 28.8751 162.699 30.4116 162.699 32.4793V60.8543Z" fill="#F5B7B1"/>
<path d="M255.074 3.39587H277.074V60.8542H255.074V40.7917H253.908C253.85 43.323 253.559 45.8073 253.033 48.25C252.501 50.698 251.663 52.9115 250.512 54.8959C249.356 56.8698 247.824 58.4323 245.908 59.5834C243.991 60.724 241.595 61.2605 238.72 61.2084C235.47 61.0834 232.845 60.4375 230.845 59.2709C228.845 58.0938 227.293 56.5 226.199 54.5C225.116 52.4896 224.366 50.2188 223.949 47.6875C223.533 45.1459 223.324 42.4688 223.324 39.6459V3.39587H244.991V31.6875C244.991 33.7448 245.491 35.2917 246.491 36.3334C247.491 37.3646 248.663 37.875 250.012 37.875C251.371 37.875 252.554 37.375 253.554 36.375C254.564 35.375 255.074 33.8438 255.074 31.7709V3.39587Z" fill="#F5B7B1"/>
<path d="M319.498 3.31262C322.149 3.31262 324.435 4.01054 326.352 5.39596C328.269 6.77096 329.816 8.59908 330.998 10.8751C332.175 13.1407 332.967 15.646 333.373 18.396C333.79 21.1355 333.816 23.8699 333.456 26.6043C333.107 29.3439 332.373 31.8491 331.248 34.1251C330.133 36.3907 328.623 38.2189 326.706 39.6043C324.79 40.9793 322.477 41.6668 319.769 41.6668H304.206V60.771H282.373V3.31262H319.498ZM304.123 39.021C306.066 38.9689 307.685 38.2814 308.977 36.9585C310.279 35.6251 311.29 33.896 311.998 31.771C312.706 29.646 313.144 27.3647 313.31 24.9168C313.488 22.4741 313.435 20.0418 313.144 17.6251C312.852 15.2085 312.316 13.0418 311.54 11.1251C310.774 9.20846 309.8 7.78658 308.623 6.85429C307.508 5.91158 306.196 5.42721 304.685 5.39596C303.185 5.35429 301.857 5.75012 300.706 6.58346C299.566 7.40637 298.998 8.69804 298.998 10.4585C298.998 11.8751 299.498 13.073 300.498 14.0418C301.498 15.0157 302.706 15.5001 304.123 15.5001V39.021Z" fill="#F5B7B1"/>
</g>
<mask id="mask1_94_452" style="mask-type:luminance" maskUnits="userSpaceOnUse" x="0" y="38" width="336" height="92">
<path d="M336 38.6666H0V129.333H336V38.6666Z" fill="white"/>
</mask>
<g mask="url(#mask1_94_452)">
<path d="M22.5869 42.0494H52.5453L52.6286 65.5494C52.6286 65.5494 51.9932 65.6015 50.7328 65.6953C49.4671 65.7786 47.889 65.7369 46.0036 65.5703C44.113 65.3932 42.2223 64.9192 40.3369 64.1536C38.4619 63.3776 36.8682 62.1849 35.5661 60.5703C34.2744 58.9453 33.5973 56.7161 33.5453 53.8828C33.488 51.3567 33.988 49.4453 35.0453 48.1536C36.0973 46.8515 37.3994 45.789 38.9411 44.9661L38.7536 43.9869C36.639 43.8776 34.5505 44.0859 32.4828 44.6119C30.4255 45.1432 28.7015 46.1015 27.3161 47.4869C25.9255 48.8619 25.2015 50.7942 25.1494 53.2786C25.0921 55.3932 25.6338 57.2578 26.7744 58.8828C27.9255 60.5078 29.4098 61.9401 31.2328 63.1744C33.0661 64.414 34.9515 65.5286 36.8994 66.5286C38.8421 67.5286 40.5505 68.4453 42.0244 69.2786C46.0921 71.5182 49.0505 74.0494 50.8994 76.8828C52.7588 79.7057 53.3682 82.9765 52.7328 86.6953C52.3682 88.8099 51.613 90.8359 50.4619 92.7786C49.3213 94.7265 47.6494 96.3359 45.4411 97.6119C43.2328 98.8776 40.3838 99.5078 36.8994 99.5078H3.7536L3.67026 74.5703C3.67026 74.5703 4.15464 74.5442 5.1286 74.4869C6.09735 74.4349 7.33693 74.4349 8.83693 74.4869C10.3369 74.5442 11.9411 74.7682 13.6494 75.1536C15.3578 75.5286 16.9723 76.164 18.5036 77.0494C20.0453 77.9401 21.3161 79.1849 22.3161 80.7786C23.3161 82.3619 23.8161 84.4192 23.8161 86.9453C23.8682 89.4869 23.4098 91.4661 22.4411 92.8828C21.4671 94.289 20.1911 95.4349 18.6078 96.3203L18.8786 97.2994C21.1703 97.2317 23.2223 96.9453 25.0453 96.4453C26.8786 95.9453 28.3682 95.0234 29.5244 93.6744C30.6755 92.3151 31.2796 90.3359 31.3369 87.7369C31.1546 84.7942 30.3161 82.3515 28.8161 80.4036C27.3161 78.4609 25.4411 76.8307 23.1911 75.5078C20.9515 74.1744 18.5973 72.9244 16.1286 71.7578C13.6546 70.5807 11.3421 69.3099 9.1911 67.9453C7.03485 66.5859 5.32651 64.9036 4.0661 62.9036C2.80047 60.9036 2.22235 58.3724 2.33693 55.2994C2.46193 52.2994 3.13901 49.9192 4.3786 48.1536C5.61297 46.3776 7.20151 45.0494 9.14943 44.1744C11.0921 43.289 13.2223 42.7109 15.5453 42.4453C17.8786 42.1849 20.2223 42.0494 22.5869 42.0494Z" fill="#FAD7A0"/>
<path d="M56.963 42.0494H80.0463V99.5078H56.963V42.0494Z" fill="#FAD7A0"/>
<path d="M112.312 74.3202V71.7369H135.999V99.5077L120.707 100.112C113.51 100.414 107.155 99.7004 101.645 97.966C96.145 96.216 91.8429 93.2108 88.7491 88.9452C85.6502 84.6691 84.0721 78.8775 84.02 71.5702C84.02 65.2108 84.9419 60.0285 86.7908 56.0285C88.6502 52.0181 91.2283 48.9348 94.52 46.7785C97.8221 44.6275 101.655 43.2108 106.02 42.5285C110.379 41.8514 115.067 41.69 120.082 42.0494L119.999 43.1952C116.926 43.7264 114.374 45.2889 112.332 47.8827C110.301 50.4816 108.801 53.7889 107.832 57.7994C106.859 61.7994 106.437 66.1535 106.562 70.8619C106.614 72.8619 106.687 75.1483 106.77 77.716C106.864 80.2733 107.176 82.8358 107.707 85.4035C108.234 87.9764 109.155 90.2733 110.478 92.2994C111.812 94.3306 113.713 95.841 116.187 96.841V76.0702L112.312 74.3202ZM135.103 42.0494C134.228 42.0494 132.978 42.065 131.353 42.091C129.728 42.1223 127.957 42.2785 126.041 42.5702C124.135 42.8619 122.312 43.44 120.562 44.2994C118.822 45.1639 117.379 46.4191 116.228 48.0702C115.088 49.7108 114.52 51.8827 114.52 54.591C114.52 57.0806 115.02 59.1223 116.02 60.716C117.02 62.2994 118.296 63.5389 119.853 64.4244C121.421 65.2994 123.088 65.9191 124.853 66.2785C126.614 66.6275 128.275 66.8306 129.832 66.8827C131.4 66.94 132.687 66.94 133.687 66.8827C134.697 66.8306 135.207 66.7994 135.207 66.7994L135.103 42.0494Z" fill="#FAD7A0"/>
<path d="M162.699 99.5911H140.679V42.1328H162.699V62.2786H163.845C163.897 59.7525 164.179 57.2682 164.679 54.8203C165.179 52.3775 166.001 50.1692 167.158 48.1953C168.309 46.2265 169.856 44.664 171.804 43.5078C173.746 42.3567 176.126 41.8098 178.949 41.8619C182.199 41.9348 184.835 42.5598 186.866 43.7369C188.892 44.9036 190.434 46.4973 191.491 48.5078C192.559 50.5078 193.304 52.7786 193.72 55.3203C194.137 57.8515 194.345 60.5234 194.345 63.3411V99.5911H172.762V71.3828C172.762 69.3307 172.262 67.789 171.262 66.7578C170.262 65.7161 169.08 65.1848 167.72 65.1536C166.371 65.1275 165.199 65.6119 164.199 66.6119C163.199 67.6119 162.699 69.1484 162.699 71.2161V99.5911Z" fill="#FAD7A0"/>
<path d="M255.074 42.1327H277.074V99.591H255.074V79.5285H253.908C253.85 82.0598 253.559 84.5442 253.033 86.9869C252.501 89.4348 251.663 91.6483 250.512 93.6327C249.356 95.6067 247.824 97.1692 245.908 98.3202C243.991 99.4608 241.595 99.9973 238.72 99.9452C235.47 99.8202 232.845 99.1744 230.845 98.0077C228.845 96.8306 227.293 95.2369 226.199 93.2369C225.116 91.2264 224.366 88.9556 223.949 86.4244C223.533 83.8827 223.324 81.2056 223.324 78.3827V42.1327H244.991V70.4244C244.991 72.4816 245.491 74.0285 246.491 75.0702C247.491 76.1014 248.663 76.6119 250.012 76.6119C251.371 76.6119 252.554 76.1119 253.554 75.1119C254.564 74.1119 255.074 72.5806 255.074 70.5077V42.1327Z" fill="#FAD7A0"/>
<path d="M319.498 42.0494C322.149 42.0494 324.435 42.7474 326.352 44.1328C328.269 45.5078 329.816 47.3359 330.998 49.6119C332.175 51.8776 332.967 54.3828 333.373 57.1328C333.79 59.8724 333.816 62.6067 333.456 65.3411C333.107 68.0807 332.373 70.5859 331.248 72.8619C330.133 75.1276 328.623 76.9557 326.706 78.3411C324.79 79.7161 322.477 80.4036 319.769 80.4036H304.206V99.5078H282.373V42.0494H319.498ZM304.123 77.7578C306.066 77.7057 307.685 77.0182 308.977 75.6953C310.279 74.3619 311.29 72.6328 311.998 70.5078C312.706 68.3828 313.144 66.1015 313.31 63.6536C313.488 61.2109 313.435 58.7786 313.144 56.3619C312.852 53.9453 312.316 51.7786 311.54 49.8619C310.774 47.9453 309.8 46.5234 308.623 45.5911C307.508 44.6484 306.196 44.164 304.685 44.1328C303.185 44.0911 301.857 44.4869 300.706 45.3203C299.566 46.1432 298.998 47.4349 298.998 49.1953C298.998 50.6119 299.498 51.8099 300.498 52.7786C301.498 53.7526 302.706 54.2369 304.123 54.2369V77.7578Z" fill="#FAD7A0"/>
</g>
<path d="M22.599 77.5197H52.5573L52.6406 101.02C52.6406 101.02 52.0052 101.072 50.7448 101.165C49.4792 101.249 47.9011 101.207 46.0156 101.04C44.125 100.863 42.2344 100.389 40.349 99.6238C38.474 98.8478 36.8802 97.6551 35.5781 96.0405C34.2865 94.4155 33.6094 92.1863 33.5573 89.353C33.5 86.8269 34 84.9155 35.0573 83.6238C36.1094 82.3217 37.4115 81.2592 38.9531 80.4363L38.7656 79.4572C36.6511 79.3478 34.5625 79.5561 32.4948 80.0822C30.4375 80.6134 28.7136 81.5717 27.3281 82.9572C25.9375 84.3322 25.2136 86.2644 25.1615 88.7488C25.1042 90.8634 25.6458 92.728 26.7865 94.353C27.9375 95.978 29.4219 97.4103 31.2448 98.6447C33.0781 99.8842 34.9636 100.999 36.9115 101.999C38.8542 102.999 40.5625 103.915 42.0365 104.749C46.1042 106.988 49.0625 109.52 50.9115 112.353C52.7708 115.176 53.3802 118.447 52.7448 122.165C52.3802 124.28 51.625 126.306 50.474 128.249C49.3333 130.197 47.6615 131.806 45.4531 133.082C43.2448 134.348 40.3958 134.978 36.9115 134.978H3.76564L3.6823 110.04C3.6823 110.04 4.16668 110.014 5.14064 109.957C6.10939 109.905 7.34897 109.905 8.84897 109.957C10.349 110.014 11.9531 110.238 13.6615 110.624C15.3698 110.999 16.9844 111.634 18.5156 112.52C20.0573 113.41 21.3281 114.655 22.3281 116.249C23.3281 117.832 23.8281 119.889 23.8281 122.415C23.8802 124.957 23.4219 126.936 22.4531 128.353C21.4792 129.759 20.2031 130.905 18.6198 131.79L18.8906 132.77C21.1823 132.702 23.2344 132.415 25.0573 131.915C26.8906 131.415 28.3802 130.494 29.5365 129.145C30.6875 127.785 31.2917 125.806 31.349 123.207C31.1667 120.264 30.3281 117.822 28.8281 115.874C27.3281 113.931 25.4531 112.301 23.2031 110.978C20.9636 109.645 18.6094 108.395 16.1406 107.228C13.6667 106.051 11.3542 104.78 9.20314 103.415C7.04689 102.056 5.33855 100.374 4.07814 98.3738C2.81251 96.3738 2.23439 93.8426 2.34897 90.7697C2.47397 87.7697 3.15105 85.3894 4.39064 83.6238C5.62501 81.8478 7.21355 80.5197 9.16147 79.6447C11.1042 78.7592 13.2344 78.1811 15.5573 77.9155C17.8906 77.6551 20.2344 77.5197 22.599 77.5197Z" fill="#C39BD3"/>
<path d="M56.9717 77.5197H80.055V134.978H56.9717V77.5197Z" fill="#C39BD3"/>
<path d="M112.319 109.79V107.207H136.006V134.978L120.714 135.582C113.517 135.884 107.162 135.171 101.652 133.436C96.1519 131.686 91.8498 128.681 88.7561 124.415C85.6571 120.139 84.079 114.348 84.0269 107.04C84.0269 100.681 84.9488 95.4987 86.7978 91.4987C88.6571 87.4883 91.2353 84.405 94.5269 82.2487C97.829 80.0977 101.662 78.681 106.027 77.9987C110.386 77.3216 115.074 77.1602 120.089 77.5196L120.006 78.6654C116.933 79.1966 114.381 80.7591 112.339 83.3529C110.308 85.9519 108.808 89.2591 107.839 93.2696C106.865 97.2696 106.444 101.624 106.569 106.332C106.621 108.332 106.694 110.619 106.777 113.186C106.871 115.744 107.183 118.306 107.714 120.874C108.24 123.447 109.162 125.744 110.485 127.77C111.819 129.801 113.72 131.311 116.194 132.311V111.54L112.319 109.79ZM135.11 77.5196C134.235 77.5196 132.985 77.5352 131.36 77.5612C129.735 77.5925 127.964 77.7487 126.048 78.0404C124.142 78.3321 122.319 78.9102 120.569 79.7696C118.829 80.6341 117.386 81.8894 116.235 83.5404C115.095 85.181 114.527 87.3529 114.527 90.0612C114.527 92.5508 115.027 94.5925 116.027 96.1862C117.027 97.7696 118.303 99.0091 119.86 99.8946C121.428 100.77 123.095 101.389 124.86 101.749C126.621 102.098 128.282 102.301 129.839 102.353C131.407 102.41 132.694 102.41 133.694 102.353C134.704 102.301 135.214 102.27 135.214 102.27L135.11 77.5196Z" fill="#C39BD3"/>
<path d="M162.703 135.061H140.682V77.603H162.703V97.7488H163.849C163.901 95.2228 164.182 92.7384 164.682 90.2905C165.182 87.8478 166.005 85.6394 167.161 83.6655C168.312 81.6967 169.859 80.1342 171.807 78.978C173.75 77.8269 176.13 77.28 178.953 77.3321C182.203 77.405 184.838 78.03 186.87 79.2071C188.896 80.3738 190.437 81.9675 191.495 83.978C192.562 85.978 193.307 88.2488 193.724 90.7905C194.14 93.3217 194.349 95.9936 194.349 98.8113V135.061H172.765V106.853C172.765 104.801 172.265 103.259 171.265 102.228C170.265 101.186 169.083 100.655 167.724 100.624C166.375 100.598 165.203 101.082 164.203 102.082C163.203 103.082 162.703 104.619 162.703 106.686V135.061Z" fill="#C39BD3"/>
<path d="M255.073 77.6029H277.073V135.061H255.073V114.999H253.906C253.849 117.53 253.557 120.014 253.031 122.457C252.5 124.905 251.661 127.119 250.51 129.103C249.354 131.077 247.823 132.639 245.906 133.79C243.989 134.931 241.594 135.467 238.719 135.415C235.469 135.29 232.844 134.645 230.844 133.478C228.844 132.301 227.292 130.707 226.198 128.707C225.114 126.697 224.364 124.426 223.948 121.895C223.531 119.353 223.323 116.676 223.323 113.853V77.6029H244.989V105.895C244.989 107.952 245.489 109.499 246.489 110.54C247.489 111.572 248.661 112.082 250.01 112.082C251.37 112.082 252.552 111.582 253.552 110.582C254.562 109.582 255.073 108.051 255.073 105.978V77.6029Z" fill="#C39BD3"/>
<path d="M319.493 77.5197C322.144 77.5197 324.43 78.2176 326.347 79.603C328.264 80.978 329.81 82.8061 330.993 85.0822C332.17 87.3478 332.961 89.853 333.368 92.603C333.784 95.3426 333.81 98.0769 333.451 100.811C333.102 103.551 332.368 106.056 331.243 108.332C330.128 110.598 328.618 112.426 326.701 113.811C324.784 115.186 322.472 115.874 319.764 115.874H304.201V134.978H282.368V77.5197H319.493ZM304.118 113.228C306.06 113.176 307.68 112.488 308.972 111.165C310.274 109.832 311.284 108.103 311.993 105.978C312.701 103.853 313.139 101.572 313.305 99.1238C313.482 96.6811 313.43 94.2488 313.139 91.8322C312.847 89.4155 312.31 87.2488 311.534 85.3322C310.769 83.4155 309.795 81.9936 308.618 81.0613C307.503 80.1186 306.191 79.6342 304.68 79.603C303.18 79.5613 301.852 79.9572 300.701 80.7905C299.56 81.6134 298.993 82.9051 298.993 84.6655C298.993 86.0822 299.493 87.2801 300.493 88.2488C301.493 89.2228 302.701 89.7072 304.118 89.7072V113.228Z" fill="#C39BD3"/>
</svg>
